<svg width="152" height="44" viewBox="0 0 152 44" fill="none" xmlns="http://www.w3.org/2000/svg">
<circle cx="43" cy="22" r="22" fill="#DA3743"/>
<circle cx="6.5" cy="21.5" r="6.5" fill="#DA3743"/>
<circle cx="42.5" cy="21.5" r="6.5" fill="#FAFAFA"/>
<path d="M76.552 27.744C74.888 26.064 74.056 24.024 74.056 21.624C74.056 19.224 74.888 17.184 76.552 15.504C78.232 13.808 80.272 12.96 82.672 12.96C85.072 12.96 87.112 13.808 88.792 15.504C90.472 17.184 91.312 19.224 91.312 21.624C91.312 24.024 90.472 26.064 88.792 27.744C87.112 29.408 85.072 30.24 82.672 30.24C80.272 30.24 78.232 29.408 76.552 27.744ZM78.784 17.712C77.712 18.8 77.176 20.104 77.176 21.624C77.176 23.144 77.712 24.44 78.784 25.512C79.856 26.584 81.152 27.12 82.672 27.12C84.192 27.12 85.488 26.584 86.56 25.512C87.648 24.424 88.192 23.128 88.192 21.624C88.192 20.104 87.648 18.8 86.56 17.712C85.472 16.624 84.176 16.08 82.672 16.08C81.168 16.08 79.872 16.624 78.784 17.712ZM104.798 24.48C104.798 26.128 104.286 27.504 103.262 28.608C102.254 29.712 100.934 30.264 99.3016 30.264C98.3256 30.264 97.4376 30.112 96.6376 29.808V35.184C96.6376 35.312 96.5816 35.432 96.4696 35.544C96.3576 35.656 96.2376 35.712 96.1096 35.712H94.1656C94.0216 35.712 93.8936 35.656 93.7816 35.544C93.6856 35.432 93.6376 35.312 93.6376 35.184V19.44C93.6376 19.296 93.6856 19.176 93.7816 19.08C93.8936 18.968 94.0216 18.912 94.1656 18.912H95.0536C95.2936 18.912 95.4696 19.088 95.5816 19.44L95.8696 20.328C95.9016 20.28 95.9496 20.224 96.0136 20.16C96.0776 20.08 96.2216 19.944 96.4456 19.752C96.6856 19.56 96.9336 19.392 97.1896 19.248C97.4616 19.104 97.8056 18.976 98.2216 18.864C98.6376 18.736 99.0616 18.672 99.4936 18.672C101.014 18.672 102.278 19.224 103.286 20.328C104.294 21.416 104.798 22.8 104.798 24.48ZM96.6376 22.944V26.904C97.2456 27.32 98.0136 27.528 98.9416 27.528C99.8056 27.528 100.478 27.232 100.958 26.64C101.454 26.032 101.702 25.312 101.702 24.48C101.702 23.648 101.47 22.928 101.006 22.32C100.542 21.712 99.9016 21.408 99.0856 21.408C98.4296 21.408 97.8936 21.568 97.4776 21.888C97.0616 22.208 96.7816 22.56 96.6376 22.944ZM106.559 24.456C106.559 22.856 107.087 21.496 108.143 20.376C109.199 19.24 110.535 18.672 112.151 18.672C113.607 18.672 114.815 19.16 115.775 20.136C116.751 21.096 117.239 22.32 117.239 23.808C117.239 24.064 117.223 24.304 117.191 24.528C117.175 24.672 117.111 24.792 116.999 24.888C116.903 24.984 116.791 25.032 116.663 25.032H109.559C109.575 25.736 109.839 26.344 110.351 26.856C110.879 27.352 111.535 27.6 112.319 27.6C113.231 27.6 114.023 27.328 114.695 26.784C114.999 26.528 115.239 26.528 115.415 26.784L116.351 28.032C116.575 28.288 116.559 28.528 116.303 28.752C115.119 29.76 113.743 30.264 112.175 30.264C110.543 30.264 109.199 29.704 108.143 28.584C107.087 27.448 106.559 26.072 106.559 24.456ZM109.727 23.064H114.215C114.183 22.52 113.967 22.064 113.567 21.696C113.183 21.328 112.687 21.144 112.079 21.144C111.423 21.144 110.887 21.328 110.471 21.696C110.055 22.048 109.807 22.504 109.727 23.064ZM119.489 29.472V19.44C119.489 19.296 119.537 19.176 119.633 19.08C119.745 18.968 119.873 18.912 120.017 18.912H120.929C121.153 18.912 121.305 19.024 121.385 19.248L121.793 20.28C122.753 19.208 123.945 18.672 125.369 18.672C128.329 18.672 129.809 20.36 129.809 23.736V29.472C129.809 29.616 129.753 29.744 129.641 29.856C129.529 29.952 129.409 30 129.281 30H127.337C127.193 30 127.065 29.952 126.953 29.856C126.857 29.744 126.809 29.616 126.809 29.472V23.736C126.809 22.184 126.169 21.408 124.889 21.408C123.689 21.408 122.889 21.984 122.489 23.136V29.472C122.489 29.68 122.441 29.824 122.345 29.904C122.249 29.968 122.065 30 121.793 30H120.017C119.889 30 119.769 29.952 119.657 29.856C119.545 29.744 119.489 29.616 119.489 29.472Z" fill="black"/>
</svg>
